<svg width="28" height="26" viewBox="0 0 28 26" fill="none" xmlns="http://www.w3.org/2000/svg">
<g clip-path="url(#clip0_146_841)">
<path d="M2.11684 21.9178L3.35169 24.0506C3.60828 24.4997 3.97709 24.8525 4.41011 25.1091C5.65035 23.5348 6.51368 22.3267 7.00011 21.4848C7.49376 20.6304 8.10046 19.294 8.82022 17.4756C6.88034 17.2203 5.41034 17.0926 4.41022 17.0926C3.45027 17.0926 1.9802 17.2203 0 17.4756C0 17.9727 0.128297 18.4698 0.384891 18.9189L2.11684 21.9178Z" fill="#0066DA"/>
<path d="M23.5903 25.1091C24.0234 24.8525 24.3923 24.4997 24.6487 24.0507L25.1619 23.1687L27.6156 18.9189C27.8675 18.4796 28.0001 17.982 28.0004 17.4756C26.0087 17.2203 24.5414 17.0926 23.5984 17.0926C22.5849 17.0926 21.1176 17.2203 19.1963 17.4756C19.9075 19.304 20.5062 20.6404 20.9924 21.4848C21.4827 22.3366 22.3487 23.5448 23.5903 25.1091Z" fill="#EA4335"/>
<path d="M14 8.49495C15.435 6.76187 16.4239 5.42549 16.9668 4.48581C17.404 3.72916 17.8851 2.52104 18.4101 0.861453C17.977 0.604859 17.4799 0.476562 16.9668 0.476562H11.0332C10.52 0.476562 10.023 0.620938 9.58984 0.861453C10.2578 2.7648 10.8245 4.11937 11.29 4.92517C11.8045 5.8157 12.7078 7.00563 14 8.49495Z" fill="#00832D"/>
<path d="M19.1799 17.4756H8.82016L4.41016 25.1091C4.84306 25.3657 5.34017 25.494 5.85336 25.494H22.1467C22.6599 25.494 23.1571 25.3497 23.59 25.109L19.1799 17.4756Z" fill="#2684FC"/>
<path d="M14.0001 8.49496L9.59011 0.861572C9.15698 1.11817 8.78817 1.4709 8.53158 1.91999L0.384891 16.0323C0.133028 16.4717 0.000347977 16.9692 0 17.4756H8.82022L14.0001 8.49496Z" fill="#00AC47"/>
<path d="M23.5419 8.97609L19.4684 1.91987C19.2119 1.47078 18.843 1.11804 18.41 0.86145L14 8.49495L19.1798 17.4756H27.984C27.984 16.9784 27.8557 16.4814 27.5991 16.0323L23.5419 8.97609Z" fill="#FFBA00"/>
</g>
<defs>
<clipPath id="clip0_146_841">
<rect width="28" height="25.0469" fill="white" transform="translate(0 0.476562)"/>
</clipPath>
</defs>
</svg>
