<svg width="200" height="72" viewBox="0 0 200 72" fill="none" xmlns="http://www.w3.org/2000/svg">
<rect width="200" height="72" fill="white"/>
<rect x="30.5" y="16.6666" width="40" height="38.6667" rx="19.3334" fill="white"/>
<path fill-rule="evenodd" clip-rule="evenodd" d="M47.4517 22.1905C48.3355 22.1905 49.2041 22.2789 50.0407 22.4495C50.4368 22.53 50.7846 22.7644 51.0078 23.1014C51.231 23.4383 51.3112 23.8501 51.2308 24.2462C51.1504 24.6422 50.9159 24.9901 50.579 25.2133C50.2421 25.4365 49.8303 25.5167 49.4342 25.4363C47.5149 25.0448 45.5226 25.2311 43.7092 25.9718C41.8957 26.7124 40.3426 27.9741 39.2462 29.5974C38.1498 31.2206 37.5593 33.1325 37.5494 35.0913C37.5395 37.0502 38.1106 38.9679 39.1905 40.6022C40.2705 42.2365 41.8107 43.5138 43.6165 44.2728C45.4224 45.0318 47.4127 45.2383 49.3359 44.8662C51.259 44.4941 53.0287 43.5601 54.4211 42.1824C55.8135 40.8046 56.7662 39.0449 57.1586 37.1258C57.1984 36.9297 57.2765 36.7433 57.3883 36.5774C57.5002 36.4114 57.6436 36.2691 57.8104 36.1586C57.9773 36.0481 58.1642 35.9715 58.3607 35.9333C58.5571 35.895 58.7591 35.8958 58.9552 35.9356C59.1513 35.9755 59.3377 36.0535 59.5036 36.1654C59.6696 36.2772 59.8119 36.4206 59.9224 36.5875C60.0329 36.7543 60.1095 36.9413 60.1477 37.1377C60.186 37.3341 60.1852 37.5362 60.1454 37.7323C59.7742 39.5497 59.017 41.2661 57.9251 42.7656L57.6249 43.1618L63.19 48.7269C63.4662 49.0005 63.6274 49.3693 63.6406 49.7578C63.6538 50.1464 63.518 50.5253 63.2609 50.817C63.0039 51.1087 62.6451 51.2911 62.258 51.3269C61.8709 51.3627 61.4847 51.2492 61.1785 51.0096L61.0353 50.8816L55.4702 45.3165C53.8479 46.5949 51.9435 47.4669 49.9158 47.8597C47.888 48.2524 45.7957 48.1546 43.8135 47.5742C41.8312 46.9939 40.0165 45.948 38.5207 44.5237C37.0249 43.0994 35.8914 41.338 35.2148 39.3865C34.5381 37.4351 34.338 35.3501 34.631 33.3055C34.9241 31.261 35.7018 29.3162 36.8993 27.6333C38.0969 25.9505 39.6795 24.5784 41.5151 23.6316C43.3508 22.6848 45.3862 22.1907 47.4517 22.1905ZM60.4044 20.6666C60.6895 20.6666 60.9689 20.7466 61.2108 20.8975C61.4527 21.0483 61.6474 21.264 61.7728 21.52L61.846 21.6983L62.0441 22.2743C62.2532 22.8872 62.59 23.4486 63.0324 23.9215C63.4748 24.3944 64.0126 24.7679 64.6102 25.0172L64.8922 25.1239L65.4682 25.3205C65.7534 25.4178 66.0034 25.5975 66.1865 25.8369C66.3696 26.0763 66.4776 26.3646 66.4969 26.6654C66.5161 26.9662 66.4458 27.2659 66.2947 27.5267C66.1436 27.7875 65.9185 27.9976 65.648 28.1305L65.4682 28.2036L64.8922 28.4017C64.2793 28.6108 63.7178 28.9477 63.245 29.3901C62.7721 29.8325 62.3986 30.3703 62.1492 30.9679L62.0426 31.2498L61.846 31.8258C61.7485 32.111 61.5686 32.3608 61.3292 32.5438C61.0897 32.7268 60.8013 32.8346 60.5005 32.8537C60.1998 32.8728 59.9001 32.8022 59.6394 32.651C59.3787 32.4998 59.1687 32.2747 59.036 32.0041L58.9628 31.8258L58.7647 31.2498C58.5557 30.6369 58.2188 30.0755 57.7764 29.6026C57.334 29.1297 56.7962 28.7562 56.1986 28.5069L55.9167 28.4002L55.3406 28.2036C55.0554 28.1063 54.8054 27.9266 54.6223 27.6872C54.4392 27.4478 54.3312 27.1595 54.3119 26.8587C54.2927 26.5579 54.3631 26.2582 54.5142 25.9974C54.6653 25.7366 54.8903 25.5265 55.1608 25.3936L55.3406 25.3205L55.9167 25.1224C56.5295 24.9133 57.091 24.5764 57.5639 24.134C58.0367 23.6916 58.4102 23.1538 58.6596 22.5562L58.7663 22.2743L58.9628 21.6983C59.0655 21.3975 59.2597 21.1363 59.5182 20.9513C59.7767 20.7663 60.0865 20.6668 60.4044 20.6666ZM60.4044 25.5369C60.0439 25.9905 59.6329 26.4016 59.1792 26.762C59.6344 27.1227 60.0428 27.5311 60.4044 27.9872C60.7651 27.5321 61.1735 27.1237 61.6296 26.762C61.1759 26.4016 60.7649 25.9905 60.4044 25.5369Z" fill="url(#paint0_linear_238_1396)"/>
<path d="M46.5154 31.6406H44.992L44.5935 33.1562H43.117V29.7188H52.3982V33.1562H50.9138L50.5154 31.6406H48.992V39.1562L50.5154 39.6406V41H44.992V39.6406L46.5154 39.1562V31.6406Z" fill="#334155"/>
<path d="M87.7751 47.916C87.6258 47.7667 87.4551 47.66 87.2631 47.596C87.0925 47.532 86.8578 47.5 86.5591 47.5H74.3351L73.9831 46.572L74.6231 46.412C75.3271 46.1987 75.7965 45.932 76.0311 45.612C76.2658 45.2707 76.3831 44.684 76.3831 43.852V32.492C76.3831 31.34 76.2871 30.412 76.0951 29.708C75.9031 29.004 75.5725 28.332 75.1031 27.692L74.7191 27.148L75.1031 26.7H83.9671C85.6525 26.7 86.7405 26.4973 87.2311 26.092L87.8071 25.708L88.2231 26.092V31.244L87.2311 31.596L87.0711 30.892C86.8151 29.8467 86.4845 29.1533 86.0791 28.812C85.6738 28.4707 84.9698 28.3 83.9671 28.3H81.1191C80.3725 28.3 79.8711 28.4493 79.6151 28.748C79.3805 29.0467 79.2631 29.644 79.2631 30.54V36.108H82.9431C83.4338 36.108 83.8498 36.012 84.1911 35.82C84.5325 35.628 84.8845 35.2867 85.2471 34.796L85.4711 34.476L86.0471 34.796V39.756L85.0871 40.108L84.8951 39.372C84.6818 38.7107 84.3618 38.2733 83.9351 38.06C83.5085 37.8467 82.7618 37.74 81.6951 37.74H79.2631V43.66C79.2631 44.2787 79.3058 44.748 79.3911 45.068C79.4978 45.3667 79.6791 45.5693 79.9351 45.676C80.1911 45.7827 80.5858 45.836 81.1191 45.836H84.2231C84.9271 45.836 85.4711 45.772 85.8551 45.644C86.2391 45.4947 86.5378 45.2387 86.7511 44.876C86.9858 44.5133 87.1991 43.98 87.3911 43.276L87.5831 42.636L88.5431 42.924V47.916L87.9991 48.204L87.7751 47.916ZM98.6481 47.916C97.3041 47.916 96.0988 47.5853 95.0321 46.924C93.9655 46.2627 93.1228 45.356 92.5041 44.204C91.9068 43.052 91.6081 41.7613 91.6081 40.332C91.6081 38.796 91.8961 37.4627 92.4721 36.332C93.0481 35.18 93.8695 34.2947 94.9361 33.676C96.0028 33.0573 97.2401 32.748 98.6481 32.748C100.141 32.748 101.357 33.1107 102.296 33.836C103.256 34.54 103.736 35.4573 103.736 36.588C103.736 37.42 103.469 38.1027 102.936 38.636C102.403 39.148 101.72 39.404 100.888 39.404C100.696 39.404 100.557 39.3827 100.472 39.34C100.387 39.2973 100.344 39.2227 100.344 39.116C100.344 39.052 100.408 38.9133 100.536 38.7C100.685 38.4867 100.813 38.2307 100.92 37.932C101.027 37.612 101.08 37.2067 101.08 36.716C101.08 35.948 100.824 35.3507 100.312 34.924C99.8215 34.476 99.1601 34.252 98.3281 34.252C97.2188 34.252 96.3228 34.796 95.6401 35.884C94.9788 36.9507 94.6481 38.3693 94.6481 40.14C94.6481 41.932 95.0428 43.3507 95.8321 44.396C96.6428 45.4413 97.7308 45.964 99.0961 45.964C99.8001 45.964 100.461 45.8467 101.08 45.612C101.699 45.3773 102.317 45.004 102.936 44.492C102.979 44.4493 103.064 44.428 103.192 44.428C103.363 44.428 103.523 44.524 103.672 44.716C103.843 44.8867 103.928 45.068 103.928 45.26C103.928 45.4093 103.907 45.484 103.864 45.484C103.181 46.2733 102.381 46.8813 101.464 47.308C100.568 47.7133 99.6295 47.916 98.6481 47.916ZM110.135 47.916C109.324 47.916 108.738 47.6813 108.375 47.212C108.034 46.7213 107.863 45.932 107.863 44.844V27.948C107.863 27.7133 107.82 27.5533 107.735 27.468C107.65 27.3613 107.5 27.308 107.287 27.308H106.039L105.751 26.572C106.306 26.06 106.946 25.644 107.671 25.324C108.396 24.9827 109.047 24.812 109.623 24.812C109.9 24.812 110.124 24.8973 110.295 25.068C110.466 25.2387 110.551 25.4627 110.551 25.74L110.487 44.94C110.487 45.26 110.562 45.5053 110.711 45.676C110.86 45.8467 111.074 45.932 111.351 45.932C111.884 45.932 112.364 45.7293 112.791 45.324L113.367 46.06C112.876 46.6147 112.332 47.0627 111.735 47.404C111.138 47.7453 110.604 47.916 110.135 47.916ZM118.182 30.316C117.862 30.316 117.488 30.092 117.062 29.644C116.635 29.196 116.422 28.7907 116.422 28.428C116.422 28.0653 116.624 27.66 117.03 27.212C117.456 26.764 117.84 26.54 118.182 26.54C118.544 26.54 118.939 26.764 119.366 27.212C119.792 27.66 120.006 28.0653 120.006 28.428C120.006 28.7907 119.792 29.196 119.366 29.644C118.939 30.092 118.544 30.316 118.182 30.316ZM119.142 47.916C118.352 47.916 117.776 47.6813 117.414 47.212C117.072 46.7213 116.902 45.932 116.902 44.844V35.884C116.902 35.628 116.859 35.4467 116.774 35.34C116.688 35.2333 116.539 35.18 116.326 35.18H115.014L114.79 34.476C115.344 33.964 115.974 33.548 116.678 33.228C117.403 32.908 118.032 32.748 118.566 32.748C118.843 32.748 119.067 32.8333 119.238 33.004C119.43 33.1533 119.526 33.356 119.526 33.612V44.94C119.526 45.6013 119.814 45.932 120.39 45.932C120.838 45.932 121.328 45.7293 121.862 45.324L122.406 46.06C121.872 46.6147 121.307 47.0627 120.71 47.404C120.134 47.7453 119.611 47.916 119.142 47.916ZM124.493 54.796L124.813 54.316C125.176 53.8253 125.432 53.3027 125.581 52.748C125.73 52.2147 125.805 51.4893 125.805 50.572V36.46C125.805 36.1827 125.762 35.9693 125.677 35.82C125.592 35.6707 125.432 35.564 125.197 35.5L123.693 35.148V34.252C123.992 33.9747 124.568 33.708 125.421 33.452C126.274 33.196 127.021 33.068 127.661 33.068C128.152 33.068 128.397 33.516 128.397 34.412V34.54C129.634 33.3453 131.032 32.748 132.589 32.748C133.762 32.748 134.818 33.0467 135.757 33.644C136.696 34.2413 137.421 35.0733 137.933 36.14C138.466 37.1853 138.733 38.3907 138.733 39.756C138.733 41.292 138.456 42.6893 137.901 43.948C137.346 45.1853 136.578 46.156 135.597 46.86C134.637 47.564 133.56 47.916 132.365 47.916C131.213 47.916 130.253 47.6493 129.485 47.116C129.293 47.0093 129.197 46.8387 129.197 46.604C129.197 46.3907 129.229 46.22 129.293 46.092C129.378 45.9427 129.496 45.868 129.645 45.868C129.709 45.868 129.912 45.9533 130.253 46.124C130.616 46.2733 131.085 46.348 131.661 46.348C132.856 46.348 133.816 45.7827 134.541 44.652C135.288 43.5213 135.661 42.0707 135.661 40.3C135.661 38.636 135.288 37.2813 134.541 36.236C133.816 35.1693 132.845 34.636 131.629 34.636C130.989 34.636 130.413 34.7213 129.901 34.892C129.389 35.0627 128.888 35.3507 128.397 35.756V52.012C128.397 52.7587 128.472 53.2813 128.621 53.58C128.792 53.8787 129.122 54.0813 129.613 54.188L130.189 54.316L129.933 55.18H124.813L124.493 54.796ZM146.671 47.916C145.22 47.916 144.015 47.5853 143.055 46.924C142.095 46.2413 141.615 45.356 141.615 44.268C141.615 43.628 141.839 43.0947 142.287 42.668C142.756 42.22 143.343 41.996 144.047 41.996C144.196 41.996 144.335 42.028 144.463 42.092C144.591 42.156 144.655 42.2413 144.655 42.348C144.655 42.412 144.591 42.604 144.463 42.924C144.335 43.2227 144.271 43.5853 144.271 44.012C144.271 44.8013 144.548 45.4093 145.103 45.836C145.679 46.2627 146.319 46.476 147.023 46.476C147.834 46.476 148.495 46.2627 149.007 45.836C149.519 45.4093 149.775 44.8547 149.775 44.172C149.775 43.5533 149.498 43.0413 148.943 42.636C148.41 42.2307 147.631 41.8147 146.607 41.388C145.668 40.9827 144.879 40.5987 144.239 40.236C143.62 39.8733 143.087 39.3933 142.639 38.796C142.191 38.1987 141.967 37.4733 141.967 36.62C141.967 35.4893 142.468 34.5613 143.471 33.836C144.474 33.1107 145.732 32.748 147.247 32.748C148.634 32.748 149.775 33.0147 150.671 33.548C151.567 34.06 152.015 34.7747 152.015 35.692C152.015 36.4387 151.791 37.0467 151.343 37.516C150.895 37.9853 150.308 38.22 149.583 38.22C149.156 38.22 148.943 38.0813 148.943 37.804C148.943 37.7187 149.018 37.5267 149.167 37.228C149.338 36.9293 149.423 36.588 149.423 36.204C149.423 35.5213 149.178 35.0093 148.687 34.668C148.196 34.3053 147.642 34.124 147.023 34.124C146.234 34.124 145.604 34.316 145.135 34.7C144.687 35.084 144.463 35.5853 144.463 36.204C144.463 36.9293 144.762 37.5267 145.359 37.996C145.956 38.444 146.799 38.8707 147.887 39.276C148.826 39.6813 149.604 40.0547 150.223 40.396C150.842 40.7373 151.364 41.1747 151.791 41.708C152.218 42.22 152.431 42.828 152.431 43.532C152.431 44.8547 151.898 45.9213 150.831 46.732C149.786 47.5213 148.399 47.916 146.671 47.916ZM161.952 47.916C160.608 47.916 159.435 47.6067 158.432 46.988C157.43 46.3693 156.651 45.5053 156.096 44.396C155.542 43.2653 155.264 41.964 155.264 40.492C155.264 38.956 155.574 37.6013 156.192 36.428C156.811 35.2547 157.686 34.348 158.816 33.708C159.968 33.068 161.291 32.748 162.784 32.748C164.363 32.748 165.579 33.164 166.432 33.996C167.307 34.828 167.744 35.8307 167.744 37.004C167.744 37.8147 167.52 38.5933 167.072 39.34C166.646 40.0867 166.006 40.6947 165.152 41.164C164.32 41.6333 163.339 41.868 162.208 41.868C161.568 41.868 160.875 41.7613 160.128 41.548C159.382 41.3133 159.008 40.972 159.008 40.524C159.008 40.3533 159.051 40.204 159.136 40.076C159.222 39.948 159.318 39.884 159.424 39.884C159.488 39.884 159.68 39.948 160 40.076C160.342 40.1827 160.779 40.236 161.312 40.236C162.486 40.236 163.392 39.916 164.032 39.276C164.672 38.636 164.992 37.868 164.992 36.972C164.992 36.204 164.736 35.5427 164.224 34.988C163.734 34.4333 163.072 34.156 162.24 34.156C160.982 34.156 160 34.7107 159.296 35.82C158.614 36.908 158.272 38.4653 158.272 40.492C158.272 42.22 158.635 43.5747 159.36 44.556C160.107 45.516 161.174 45.996 162.56 45.996C164.267 45.996 165.675 45.4413 166.784 44.332C166.848 44.268 166.934 44.236 167.04 44.236C167.211 44.236 167.382 44.3213 167.552 44.492C167.744 44.6627 167.84 44.844 167.84 45.036C167.84 45.1 167.819 45.164 167.776 45.228C167.734 45.2707 167.712 45.3027 167.712 45.324C166.987 46.1773 166.123 46.828 165.12 47.276C164.139 47.7027 163.083 47.916 161.952 47.916Z" fill="#3B3B4F"/>
<defs>
<linearGradient id="paint0_linear_238_1396" x1="50.5" y1="51.3334" x2="50.5" y2="20.6666" gradientUnits="userSpaceOnUse">
<stop stop-color="#8F2AF6"/>
<stop offset="1" stop-color="#B10DC6"/>
</linearGradient>
</defs>
</svg>
