<svg width="41" height="40" viewBox="0 0 41 40" fill="none" xmlns="http://www.w3.org/2000/svg">
<rect x="0.5" y="0.666634" width="40" height="38.6667" rx="19.3334" fill="white"/>
<path fill-rule="evenodd" clip-rule="evenodd" d="M17.4517 6.19049C18.3355 6.19049 19.2041 6.27887 20.0407 6.44954C20.4368 6.52997 20.7846 6.76444 21.0078 7.10137C21.231 7.4383 21.3112 7.8501 21.2308 8.24617C21.1504 8.64223 20.9159 8.99013 20.579 9.21332C20.2421 9.43652 19.8303 9.51672 19.4342 9.4363C17.5149 9.04476 15.5226 9.2311 13.7092 9.97176C11.8957 10.7124 10.3426 11.9741 9.24624 13.5974C8.14983 15.2206 7.55934 17.1325 7.54943 19.0913C7.53952 21.0502 8.11062 22.9679 9.19055 24.6022C10.2705 26.2365 11.8107 27.5138 13.6165 28.2728C15.4224 29.0318 17.4127 29.2383 19.3359 28.8662C21.259 28.4941 23.0287 27.5601 24.4211 26.1824C25.8135 24.8046 26.7662 23.0449 27.1586 21.1258C27.1984 20.9297 27.2765 20.7433 27.3883 20.5774C27.5002 20.4114 27.6436 20.2691 27.8104 20.1586C27.9773 20.0481 28.1642 19.9715 28.3607 19.9333C28.5571 19.895 28.7591 19.8958 28.9552 19.9356C29.1513 19.9755 29.3377 20.0535 29.5036 20.1654C29.6696 20.2772 29.8119 20.4206 29.9224 20.5875C30.0329 20.7543 30.1095 20.9413 30.1477 21.1377C30.186 21.3341 30.1852 21.5362 30.1454 21.7323C29.7742 23.5497 29.017 25.2661 27.9251 26.7656L27.6249 27.1618L33.19 32.7269C33.4662 33.0005 33.6274 33.3693 33.6406 33.7578C33.6538 34.1464 33.518 34.5253 33.2609 34.817C33.0039 35.1087 32.6451 35.2911 32.258 35.3269C31.8709 35.3627 31.4847 35.2492 31.1785 35.0096L31.0353 34.8816L25.4702 29.3165C23.8479 30.5949 21.9435 31.4669 19.9158 31.8597C17.888 32.2524 15.7957 32.1546 13.8135 31.5742C11.8312 30.9939 10.0165 29.948 8.52071 28.5237C7.02491 27.0994 5.89141 25.338 5.21477 23.3865C4.53814 21.4351 4.33799 19.3501 4.63103 17.3055C4.92407 15.261 5.7018 13.3162 6.89933 11.6333C8.09686 9.95047 9.67947 8.5784 11.5151 7.63159C13.3508 6.68477 15.3862 6.19066 17.4517 6.19049ZM30.4044 4.66663C30.6895 4.66663 30.9689 4.7466 31.2108 4.89745C31.4527 5.0483 31.6474 5.26399 31.7728 5.51999L31.846 5.69828L32.0441 6.2743C32.2532 6.88717 32.59 7.44863 33.0324 7.9215C33.4748 8.39437 34.0126 8.76786 34.6102 9.01724L34.8922 9.12391L35.4682 9.32048C35.7534 9.4178 36.0034 9.59752 36.1865 9.83691C36.3696 10.0763 36.4776 10.3646 36.4969 10.6654C36.5161 10.9662 36.4458 11.2659 36.2947 11.5267C36.1436 11.7875 35.9185 11.9976 35.648 12.1305L35.4682 12.2036L34.8922 12.4017C34.2793 12.6108 33.7178 12.9477 33.245 13.3901C32.7721 13.8325 32.3986 14.3703 32.1492 14.9679L32.0426 15.2498L31.846 15.8258C31.7485 16.111 31.5686 16.3608 31.3292 16.5438C31.0897 16.7268 30.8013 16.8346 30.5005 16.8537C30.1998 16.8728 29.9001 16.8022 29.6394 16.651C29.3787 16.4998 29.1687 16.2747 29.036 16.0041L28.9628 15.8258L28.7647 15.2498C28.5557 14.6369 28.2188 14.0755 27.7764 13.6026C27.334 13.1297 26.7962 12.7562 26.1986 12.5069L25.9167 12.4002L25.3406 12.2036C25.0554 12.1063 24.8054 11.9266 24.6223 11.6872C24.4392 11.4478 24.3312 11.1595 24.3119 10.8587C24.2927 10.5579 24.3631 10.2582 24.5142 9.99741C24.6653 9.73663 24.8903 9.52651 25.1608 9.39363L25.3406 9.32048L25.9167 9.12238C26.5295 8.91331 27.091 8.57642 27.5639 8.13402C28.0367 7.69162 28.4102 7.15382 28.6596 6.55621L28.7663 6.2743L28.9628 5.69828C29.0655 5.39745 29.2597 5.13626 29.5182 4.95127C29.7767 4.76628 30.0865 4.66676 30.4044 4.66663ZM30.4044 9.53687C30.0439 9.99052 29.6329 10.4016 29.1792 10.762C29.6344 11.1227 30.0428 11.5311 30.4044 11.9872C30.7651 11.5321 31.1735 11.1237 31.6296 10.762C31.1759 10.4016 30.7649 9.99052 30.4044 9.53687Z" fill="url(#paint0_linear_238_1397)"/>
<path d="M16.5154 15.6406H14.992L14.5935 17.1562H13.117V13.7188H22.3982V17.1562H20.9138L20.5154 15.6406H18.992V23.1562L20.5154 23.6406V25H14.992V23.6406L16.5154 23.1562V15.6406Z" fill="#334155"/>
<defs>
<linearGradient id="paint0_linear_238_1397" x1="20.5" y1="35.3334" x2="20.5" y2="4.66663" gradientUnits="userSpaceOnUse">
<stop stop-color="#8F2AF6"/>
<stop offset="1" stop-color="#B10DC6"/>
</linearGradient>
</defs>
</svg>
