<svg width="30" height="20" viewBox="0 0 30 20" fill="none" xmlns="http://www.w3.org/2000/svg">
<g clip-path="url(#clip0_146_871)">
<path d="M18.1241 13.3026L24.3165 7.38063C23.0303 2.365 17.9216 -0.658083 12.906 0.628284C10.6474 1.20749 8.68572 2.60757 7.40381 4.55524C7.49955 4.55289 18.1241 13.3026 18.1241 13.3026Z" fill="#0364B8"/>
<path d="M11.4396 5.67013L11.4394 5.67118C10.2561 4.93842 8.89147 4.55107 7.49965 4.55286C7.46754 4.55286 7.4359 4.55485 7.40379 4.55521C3.26391 4.60653 -0.0506254 8.00427 0.000585518 12.1443C0.0191831 13.646 0.488399 15.1075 1.34742 16.3393L10.6246 15.1774L17.7371 9.44228L11.4396 5.67013Z" fill="#0078D4"/>
<path d="M24.3167 7.38065C24.1798 7.37099 24.0426 7.36587 23.9054 7.3653C23.0746 7.36446 22.2526 7.53413 21.4901 7.86381L21.4899 7.86323L17.7373 9.44233L21.8743 14.5525L29.27 16.3503C30.8661 13.3874 29.7579 9.6917 26.795 8.09561C26.0293 7.68323 25.1843 7.43937 24.3167 7.38065Z" fill="#1490DF"/>
<path d="M1.34766 16.3394C2.0378 17.3316 2.95782 18.1421 4.02917 18.7016C5.10052 19.2611 6.29136 19.5529 7.5 19.5523H23.9055C25.0055 19.5526 26.085 19.2551 27.0295 18.6913C27.974 18.1276 28.7483 17.3187 29.2702 16.3504L17.7374 9.4422L1.34766 16.3394Z" fill="#28A8EA"/>
</g>
<defs>
<clipPath id="clip0_146_871">
<rect width="30" height="19.3359" fill="white" transform="translate(0 0.332031)"/>
</clipPath>
</defs>
</svg>
