<svg width="80" height="80" viewBox="0 0 80 80" fill="none" xmlns="http://www.w3.org/2000/svg">
<rect width="80" height="80" rx="8" fill="white"/>
<path d="M23.739 59.8006C29.3952 55.8944 33.1765 49.9256 35.9577 42.6131C38.7702 35.3319 41.7702 29.0819 40.4577 21.8944C40.2702 20.7694 38.6765 19.6131 37.864 19.7069C34.6765 19.8944 34.8952 23.4881 35.2077 25.6444C35.9577 30.9881 40.0827 37.2069 44.0827 43.0194C48.0515 48.8631 51.3327 49.7694 55.8952 50.0819C57.4577 50.1756 59.8015 49.6444 60.1765 48.2694C62.5827 39.5194 31.989 46.5819 21.8015 54.7694C20.5515 55.8006 19.114 57.8944 19.9265 59.3319C20.5515 60.4569 22.6452 60.5819 23.7702 59.8006H23.739Z" stroke="#ED8796" stroke-width="2" stroke-linecap="round" stroke-linejoin="round"/>
</svg>
